<svg width="393" height="397" viewBox="0 0 393 397" fill="none" xmlns="http://www.w3.org/2000/svg">
<path d="M3.8445e-06 20.16C3.8445e-06 2.40003 2.28 3.52859e-05 23.52 3.52859e-05C43.92 3.52859e-05 47.28 1.92003 47.28 20.16V33.72H26.64V20.76C26.64 17.28 26.04 15.96 23.28 15.96C20.76 15.96 20.64 17.76 20.64 20.76V77.76C20.64 81.12 21.36 82.68 23.64 82.68C25.56 82.68 26.64 81.48 26.64 79.44C26.64 79.32 26.64 78.72 26.64 77.76V56.64H47.28V78.36C47.28 96.36 44.4 98.76 23.64 98.76C3.36 98.76 3.8445e-06 96.72 3.8445e-06 78.36V20.16ZM54.4809 38.52C54.4809 21.24 56.2809 18.12 75.0009 18.12C92.8809 18.12 95.5209 20.64 95.5209 38.52V78.12C95.5209 95.76 93.3609 98.52 75.1209 98.52C57.2409 98.52 54.4809 96.12 54.4809 78.12V38.52ZM72.2409 36.6V80.16C72.2409 83.52 72.8409 84.96 75.0009 84.96C76.8009 84.96 77.7609 83.88 77.7609 81.96C77.7609 81.72 77.7609 81.12 77.7609 80.16V36.6C77.7609 33.36 77.2809 31.8 75.0009 31.8C73.2009 31.8 72.2409 32.88 72.2409 34.8C72.2409 35.64 72.2409 36.24 72.2409 36.6ZM149.813 98.04V37.56C149.813 34.56 148.973 33.12 147.173 33.12C144.773 33.12 144.053 34.32 144.053 37.56V98.04H126.533V37.56C126.533 34.56 125.813 33.12 123.893 33.12C121.493 33.12 120.773 34.32 120.773 37.56V98.04H103.133V18.6H120.893V22.8C124.013 19.56 127.013 18.12 130.853 18.12C135.293 18.12 138.533 19.68 142.013 23.4C145.613 19.92 149.693 18.12 154.133 18.12C164.453 18.12 167.453 25.08 167.453 37.8C167.453 38.04 167.453 38.88 167.453 40.08V98.04H149.813ZM175.907 116.4V18.6H193.667V22.32C196.787 19.44 200.147 18.12 203.627 18.12C213.947 18.12 216.947 25.08 216.947 37.8C216.947 38.04 216.947 38.88 216.947 40.08V76.56C216.947 77.64 216.947 78.72 216.947 80.04C216.947 92.28 213.107 98.4 203.627 98.4C200.147 98.4 196.787 97.08 193.667 94.2V116.4H175.907ZM199.187 78.84V37.8C199.187 34.8 198.587 33.24 196.667 33.24C194.267 33.24 193.667 34.56 193.667 37.8V78.84C193.667 81.84 194.147 83.4 196.427 83.4C198.467 83.4 199.187 81.96 199.187 78.84ZM265.58 18.6V98.04H247.82V94.32C244.7 97.2 241.22 98.52 237.74 98.52C225.98 98.52 224.42 89.76 224.42 76.56V18.6H242.3V79.08C242.3 82.2 242.9 83.52 245.06 83.52C247.1 83.52 247.82 82.2 247.82 79.08V18.6H265.58ZM292.833 0.600035V18.6H299.553V32.28H292.833V79.32C292.833 83.04 293.313 84.96 296.433 84.96H299.553V98.28H291.033C275.553 98.28 275.073 92.64 275.073 79.32V32.28H270.393V18.6H275.073V0.600035H292.833ZM328.073 68.88H345.833V78.12C345.833 95.76 343.673 98.52 325.433 98.52C307.553 98.52 304.793 96.12 304.793 78.12V38.52C304.793 21.24 306.593 18.12 325.313 18.12C343.193 18.12 345.833 20.64 345.833 38.52V60.84H322.553V80.16C322.553 83.52 323.153 84.96 325.313 84.96C327.113 84.96 328.073 83.76 328.073 81.72C328.073 81.6 328.073 81.12 328.073 80.16V68.88ZM328.073 47.16V36.6C328.073 33.36 327.593 31.8 325.313 31.8C323.513 31.8 322.553 32.88 322.553 34.8C322.553 35.64 322.553 36.24 322.553 36.6V47.16H328.073ZM353.446 98.04V18.6H371.206V22.32C374.446 19.44 377.806 18.12 380.686 18.12C389.926 18.12 392.686 25.08 392.686 37.8C392.686 38.04 392.686 38.88 392.686 40.08V51.12H376.726V37.56C376.726 34.56 376.006 33.12 374.206 33.12C371.806 33.12 371.206 34.32 371.206 37.56V98.04H353.446ZM38.4347 207.92H59.0747V227C59.0747 230.36 59.9147 231.8 62.1947 231.8C63.9947 231.8 65.3147 230.6 65.3147 228.8C65.3147 228.56 65.3147 227.96 65.3147 227V212.48C65.3147 209 64.8347 207.56 61.2347 205.64L47.4347 197.96C40.7147 194.24 38.4347 188.84 38.4347 180.44V169.04C38.4347 151.16 41.6747 149 61.9547 149C77.5547 149 85.4747 150.2 85.4747 163.16C85.4747 163.76 85.4747 165.68 85.4747 169.04V183.56H65.1947V169.64C65.1947 166.28 64.7147 164.84 61.9547 164.84C59.5547 164.84 59.0747 166.64 59.0747 169.64V178.88C59.0747 182.36 59.6747 183.8 63.1547 185.72L75.8747 192.56C83.5547 196.64 85.4747 201.68 85.4747 209.36V227.6C85.4747 229.04 85.4747 230.36 85.4747 231.56C85.4747 236.6 85.2347 240.2 82.9547 243.2C79.7147 247.52 73.3547 247.76 62.3147 247.76C42.2747 247.76 38.4347 245.84 38.4347 227.6V207.92ZM116.081 213.2H133.841V227.12C133.841 244.76 131.681 247.52 113.441 247.52C95.5613 247.52 92.8013 245.12 92.8013 227.12V187.52C92.8013 170.24 94.6013 167.12 113.321 167.12C131.201 167.12 133.841 169.64 133.841 187.52V199.76H116.081V185.6C116.081 182.36 115.601 180.8 113.321 180.8C110.801 180.8 110.561 182.48 110.561 185.6V229.16C110.561 232.52 111.161 233.96 113.321 233.96C115.121 233.96 116.081 232.76 116.081 230.72C116.081 230.6 116.081 230.12 116.081 229.16V213.2ZM141.454 247.04V167.6H159.214V247.04H141.454ZM141.454 161.48V149.6H159.214V161.48H141.454ZM190.027 217.88H207.787V227.12C207.787 244.76 205.627 247.52 187.387 247.52C169.507 247.52 166.747 245.12 166.747 227.12V187.52C166.747 170.24 168.547 167.12 187.267 167.12C205.147 167.12 207.787 169.64 207.787 187.52V209.84H184.507V229.16C184.507 232.52 185.107 233.96 187.267 233.96C189.067 233.96 190.027 232.76 190.027 230.72C190.027 230.6 190.027 230.12 190.027 229.16V217.88ZM190.027 196.16V185.6C190.027 182.36 189.547 180.8 187.267 180.8C185.467 180.8 184.507 181.88 184.507 183.8C184.507 184.64 184.507 185.24 184.507 185.6V196.16H190.027ZM215.399 247.04V167.6H233.159V171.32C236.279 168.44 239.639 167.12 243.119 167.12C253.439 167.12 256.439 174.08 256.439 186.8C256.439 187.04 256.439 187.88 256.439 189.08V247.04H238.679V186.56C238.679 183.56 237.959 182.12 236.159 182.12C233.759 182.12 233.159 183.32 233.159 186.56V247.04H215.399ZM287.292 213.2H305.052V227.12C305.052 244.76 302.892 247.52 284.652 247.52C266.772 247.52 264.012 245.12 264.012 227.12V187.52C264.012 170.24 265.812 167.12 284.532 167.12C302.412 167.12 305.052 169.64 305.052 187.52V199.76H287.292V185.6C287.292 182.36 286.812 180.8 284.532 180.8C282.012 180.8 281.772 182.48 281.772 185.6V229.16C281.772 232.52 282.372 233.96 284.532 233.96C286.332 233.96 287.292 232.76 287.292 230.72C287.292 230.6 287.292 230.12 287.292 229.16V213.2ZM335.105 217.88H352.865V227.12C352.865 244.76 350.705 247.52 332.465 247.52C314.585 247.52 311.825 245.12 311.825 227.12V187.52C311.825 170.24 313.625 167.12 332.345 167.12C350.225 167.12 352.865 169.64 352.865 187.52V209.84H329.585V229.16C329.585 232.52 330.185 233.96 332.345 233.96C334.145 233.96 335.105 232.76 335.105 230.72C335.105 230.6 335.105 230.12 335.105 229.16V217.88ZM335.105 196.16V185.6C335.105 182.36 334.625 180.8 332.345 180.8C330.545 180.8 329.585 181.88 329.585 183.8C329.585 184.64 329.585 185.24 329.585 185.6V196.16H335.105ZM42.5363 356.92H63.1763V376C63.1763 379.36 64.0163 380.8 66.2963 380.8C68.0963 380.8 69.4163 379.6 69.4163 377.8C69.4163 377.56 69.4163 376.96 69.4163 376V361.48C69.4163 358 68.9363 356.56 65.3363 354.64L51.5363 346.96C44.8163 343.24 42.5363 337.84 42.5363 329.44V318.04C42.5363 300.16 45.7763 298 66.0563 298C81.6563 298 89.5763 299.2 89.5763 312.16C89.5763 312.76 89.5763 314.68 89.5763 318.04V332.56H69.2963V318.64C69.2963 315.28 68.8163 313.84 66.0563 313.84C63.6563 313.84 63.1763 315.64 63.1763 318.64V327.88C63.1763 331.36 63.7763 332.8 67.2563 334.72L79.9763 341.56C87.6563 345.64 89.5763 350.68 89.5763 358.36V376.6C89.5763 378.04 89.5763 379.36 89.5763 380.56C89.5763 385.6 89.3363 389.2 87.0563 392.2C83.8163 396.52 77.4563 396.76 66.4163 396.76C46.3763 396.76 42.5363 394.84 42.5363 376.6V356.92ZM116.583 298.6V316.6H123.303V330.28H116.583V377.32C116.583 381.04 117.063 382.96 120.183 382.96H123.303V396.28H114.783C99.3028 396.28 98.8228 390.64 98.8228 377.32V330.28H94.1428V316.6H98.8228V298.6H116.583ZM170.423 316.6V396.04H152.663V392.32C149.543 395.2 146.063 396.52 142.583 396.52C130.823 396.52 129.263 387.76 129.263 374.56V316.6H147.143V377.08C147.143 380.2 147.743 381.52 149.903 381.52C151.943 381.52 152.663 380.2 152.663 377.08V316.6H170.423ZM219.037 298.24V396.04H201.277V392.2C198.157 395.08 194.797 396.4 191.317 396.4C179.557 396.4 177.997 387.76 177.997 374.56V338.08C177.997 337.72 177.997 336.88 177.997 335.8C177.997 323.08 180.997 316.12 191.317 316.12C194.797 316.12 198.157 317.44 201.277 320.32V298.24H219.037ZM195.757 335.68V376.84C195.757 379.84 196.237 381.28 198.517 381.28C200.557 381.28 201.277 379.96 201.277 376.84V335.68C201.277 334.84 201.277 334.36 201.277 334.12C201.277 332.44 200.077 331.24 198.757 331.24C196.477 331.24 195.757 332.44 195.757 335.68ZM249.909 366.88H267.669V376.12C267.669 393.76 265.509 396.52 247.269 396.52C229.389 396.52 226.629 394.12 226.629 376.12V336.52C226.629 319.24 228.429 316.12 247.149 316.12C265.029 316.12 267.669 318.64 267.669 336.52V358.84H244.389V378.16C244.389 381.52 244.989 382.96 247.149 382.96C248.949 382.96 249.909 381.76 249.909 379.72C249.909 379.6 249.909 379.12 249.909 378.16V366.88ZM249.909 345.16V334.6C249.909 331.36 249.429 329.8 247.149 329.8C245.349 329.8 244.389 330.88 244.389 332.8C244.389 333.64 244.389 334.24 244.389 334.6V345.16H249.909ZM275.282 396.04V316.6H293.042V320.32C296.162 317.44 299.522 316.12 303.002 316.12C313.322 316.12 316.322 323.08 316.322 335.8C316.322 336.04 316.322 336.88 316.322 338.08V396.04H298.562V335.56C298.562 332.56 297.842 331.12 296.042 331.12C293.642 331.12 293.042 332.32 293.042 335.56V396.04H275.282ZM343.575 298.6V316.6H350.295V330.28H343.575V377.32C343.575 381.04 344.055 382.96 347.175 382.96H350.295V396.28H341.775C326.295 396.28 325.815 390.64 325.815 377.32V330.28H321.135V316.6H325.815V298.6H343.575Z" fill="white"/>
</svg>
