<svg width="527" height="498" viewBox="0 0 527 498" fill="none" xmlns="http://www.w3.org/2000/svg">
<path d="M59.8389 138.428V34.2773H44.5312V9.52148H100.928V34.2773H85.6201V138.428H59.8389ZM107.666 138.428V28.5645H134.326V40.7959C135.596 36.5479 137.842 33.2275 141.064 30.835C144.287 28.4424 148.34 27.2461 153.223 27.2461V49.1455C151.074 49.1455 148.511 49.3896 145.532 49.8779C142.554 50.3174 139.941 50.9521 137.695 51.7822C135.449 52.5635 134.326 53.4424 134.326 54.4189V138.428H107.666ZM179.663 139.6C173.56 139.6 168.896 138.184 165.674 135.352C162.5 132.52 160.327 128.638 159.155 123.706C157.983 118.774 157.397 113.184 157.397 106.934C157.397 100.244 158.057 94.7754 159.375 90.5273C160.693 86.2305 162.939 82.7148 166.113 79.9805C169.336 77.2461 173.755 74.9268 179.37 73.0225L195.63 67.4561V56.1768C195.63 50.2686 193.701 47.3145 189.844 47.3145C186.328 47.3145 184.57 49.707 184.57 54.4922V61.084H159.082C159.033 60.6934 159.009 60.2051 159.009 59.6191C159.009 58.9844 159.009 58.2764 159.009 57.4951C159.009 46.5576 161.572 38.8184 166.699 34.2773C171.875 29.6875 180.054 27.3926 191.235 27.3926C197.095 27.3926 202.344 28.4424 206.982 30.542C211.621 32.5928 215.283 35.6445 217.969 39.6973C220.703 43.75 222.07 48.7549 222.07 54.7119V138.428H195.996V125.391C194.727 129.98 192.627 133.496 189.697 135.938C186.768 138.379 183.423 139.6 179.663 139.6ZM189.99 119.238C192.139 119.238 193.604 118.335 194.385 116.528C195.166 114.722 195.557 112.769 195.557 110.669V80.0537C191.943 81.5186 189.136 83.374 187.134 85.6201C185.132 87.8174 184.131 91.0645 184.131 95.3613V109.497C184.131 115.991 186.084 119.238 189.99 119.238ZM232.031 21.8262V0H258.252V21.8262H232.031ZM232.031 138.428V28.5645H258.252V138.428H232.031ZM268.652 138.428V28.5645H294.873V42.5537C295.85 38.3545 297.656 34.79 300.293 31.8604C302.979 28.8818 306.689 27.3926 311.426 27.3926C319.043 27.3926 324.561 29.7363 327.979 34.4238C331.445 39.1113 333.179 45.5322 333.179 53.6865V138.428H307.324V56.3965C307.324 54.248 306.885 52.2705 306.006 50.4639C305.127 48.6084 303.613 47.6807 301.465 47.6807C299.463 47.6807 297.974 48.3887 296.997 49.8047C296.069 51.1719 295.483 52.9053 295.239 55.0049C294.995 57.0557 294.873 59.1064 294.873 61.1572V138.428H268.652ZM374.268 139.6C366.455 139.6 360.229 138.135 355.591 135.205C350.952 132.275 347.632 128.052 345.63 122.534C343.628 117.017 342.627 110.376 342.627 102.612V58.4473C342.627 48.2422 345.557 40.5273 351.416 35.3027C357.275 30.0293 365.332 27.3926 375.586 27.3926C396.68 27.3926 407.227 37.7441 407.227 58.4473V66.4307C407.227 76.0986 407.129 82.5928 406.934 85.9131H368.848V107.153C368.848 109.106 368.97 111.035 369.214 112.939C369.458 114.795 369.995 116.333 370.825 117.554C371.704 118.774 373.096 119.385 375 119.385C377.734 119.385 379.443 118.213 380.127 115.869C380.811 113.477 381.152 110.376 381.152 106.567V96.0205H407.227V102.246C407.227 110.449 406.201 117.334 404.15 122.9C402.148 128.418 398.73 132.593 393.896 135.425C389.111 138.208 382.568 139.6 374.268 139.6ZM368.701 72.876H381.152V58.0811C381.152 54.126 380.664 51.2939 379.688 49.585C378.711 47.8271 377.246 46.9482 375.293 46.9482C373.193 46.9482 371.558 47.7783 370.386 49.4385C369.263 51.0986 368.701 53.9795 368.701 58.0811V72.876ZM447.51 139.6C439.697 139.6 433.472 138.135 428.833 135.205C424.194 132.275 420.874 128.052 418.872 122.534C416.87 117.017 415.869 110.376 415.869 102.612V58.4473C415.869 48.2422 418.799 40.5273 424.658 35.3027C430.518 30.0293 438.574 27.3926 448.828 27.3926C469.922 27.3926 480.469 37.7441 480.469 58.4473V66.4307C480.469 76.0986 480.371 82.5928 480.176 85.9131H442.09V107.153C442.09 109.106 442.212 111.035 442.456 112.939C442.7 114.795 443.237 116.333 444.067 117.554C444.946 118.774 446.338 119.385 448.242 119.385C450.977 119.385 452.686 118.213 453.369 115.869C454.053 113.477 454.395 110.376 454.395 106.567V96.0205H480.469V102.246C480.469 110.449 479.443 117.334 477.393 122.9C475.391 128.418 471.973 132.593 467.139 135.425C462.354 138.208 455.811 139.6 447.51 139.6ZM441.943 72.876H454.395V58.0811C454.395 54.126 453.906 51.2939 452.93 49.585C451.953 47.8271 450.488 46.9482 448.535 46.9482C446.436 46.9482 444.8 47.7783 443.628 49.4385C442.505 51.0986 441.943 53.9795 441.943 58.0811V72.876ZM33.252 309.6C21.4844 309.6 12.9883 306.67 7.76367 300.811C2.58789 294.951 0 285.625 0 272.832V260.234H25.4883V276.348C25.4883 279.326 25.9277 281.67 26.8066 283.379C27.7344 285.039 29.3213 285.869 31.5674 285.869C33.9111 285.869 35.5225 285.186 36.4014 283.818C37.3291 282.451 37.793 280.205 37.793 277.08C37.793 273.125 37.4023 269.829 36.6211 267.192C35.8398 264.507 34.4727 261.968 32.5195 259.575C30.6152 257.134 27.9541 254.302 24.5361 251.079L12.9639 240.093C4.32129 231.938 0 222.612 0 212.114C0 201.128 2.53906 192.754 7.61719 186.992C12.7441 181.23 20.1416 178.35 29.8096 178.35C41.626 178.35 50 181.499 54.9316 187.798C59.9121 194.097 62.4023 203.667 62.4023 216.509H36.1816V207.646C36.1816 205.889 35.6689 204.521 34.6436 203.545C33.667 202.568 32.3242 202.08 30.6152 202.08C28.5645 202.08 27.0508 202.666 26.0742 203.838C25.1465 204.961 24.6826 206.426 24.6826 208.232C24.6826 210.039 25.1709 211.992 26.1475 214.092C27.124 216.191 29.0527 218.608 31.9336 221.343L46.8018 235.625C49.7803 238.457 52.5146 241.46 55.0049 244.634C57.4951 247.759 59.4971 251.421 61.0107 255.62C62.5244 259.771 63.2812 264.849 63.2812 270.854C63.2812 282.964 61.0352 292.461 56.543 299.346C52.0996 306.182 44.3359 309.6 33.252 309.6ZM103.418 309.6C81.543 309.6 70.6055 298.247 70.6055 275.542V231.45C70.6055 221.099 73.5107 212.847 79.3213 206.694C85.1318 200.493 93.1641 197.393 103.418 197.393C113.721 197.393 121.777 200.493 127.588 206.694C133.398 212.847 136.304 221.099 136.304 231.45V275.542C136.304 298.247 125.342 309.6 103.418 309.6ZM103.418 289.385C105.615 289.385 107.178 288.604 108.105 287.041C109.082 285.43 109.57 283.403 109.57 280.962V227.275C109.57 220.879 107.52 217.681 103.418 217.681C99.3164 217.681 97.2656 220.879 97.2656 227.275V280.962C97.2656 283.403 97.7295 285.43 98.6572 287.041C99.6338 288.604 101.221 289.385 103.418 289.385ZM148.462 308.428V223.394H143.701V203.398H148.462V195.928C148.462 184.111 154.37 178.203 166.187 178.203C171.753 178.203 176.245 178.911 179.663 180.327V196.514C178.442 196.27 177.637 196.147 177.246 196.147C175.732 196.147 174.805 196.709 174.463 197.832C174.121 198.906 173.95 200.298 173.95 202.007V203.398H179.663V223.687H174.463V308.428H148.462ZM210.645 309.6C203.564 309.6 198.779 308.11 196.289 305.132C193.848 302.104 192.627 297.49 192.627 291.289V222.808H185.229V202.812H192.627V179.521H218.115V202.812H225.513V222.808H218.115V285.137C218.115 286.943 218.408 288.213 218.994 288.945C219.58 289.678 220.703 290.044 222.363 290.044C223.535 290.044 224.585 289.946 225.513 289.751V307.622C224.927 307.817 223.096 308.184 220.02 308.721C216.943 309.307 213.818 309.6 210.645 309.6ZM245.435 308.428L232.178 198.564H254.663L261.914 257.598L268.286 198.564H293.408L300.952 257.598L307.031 198.564H329.59L316.187 308.428H288.574L280.664 246.099L273.779 308.428H245.435ZM358.374 309.6C352.271 309.6 347.607 308.184 344.385 305.352C341.211 302.52 339.038 298.638 337.866 293.706C336.694 288.774 336.108 283.184 336.108 276.934C336.108 270.244 336.768 264.775 338.086 260.527C339.404 256.23 341.65 252.715 344.824 249.98C348.047 247.246 352.466 244.927 358.081 243.022L374.341 237.456V226.177C374.341 220.269 372.412 217.314 368.555 217.314C365.039 217.314 363.281 219.707 363.281 224.492V231.084H337.793C337.744 230.693 337.72 230.205 337.72 229.619C337.72 228.984 337.72 228.276 337.72 227.495C337.72 216.558 340.283 208.818 345.41 204.277C350.586 199.688 358.765 197.393 369.946 197.393C375.806 197.393 381.055 198.442 385.693 200.542C390.332 202.593 393.994 205.645 396.68 209.697C399.414 213.75 400.781 218.755 400.781 224.712V308.428H374.707V295.391C373.438 299.98 371.338 303.496 368.408 305.938C365.479 308.379 362.134 309.6 358.374 309.6ZM368.701 289.238C370.85 289.238 372.314 288.335 373.096 286.528C373.877 284.722 374.268 282.769 374.268 280.669V250.054C370.654 251.519 367.847 253.374 365.845 255.62C363.843 257.817 362.842 261.064 362.842 265.361V279.497C362.842 285.991 364.795 289.238 368.701 289.238ZM410.889 308.428V198.564H437.549V210.796C438.818 206.548 441.064 203.228 444.287 200.835C447.51 198.442 451.562 197.246 456.445 197.246V219.146C454.297 219.146 451.733 219.39 448.755 219.878C445.776 220.317 443.164 220.952 440.918 221.782C438.672 222.563 437.549 223.442 437.549 224.419V308.428H410.889ZM493.652 309.6C485.84 309.6 479.614 308.135 474.976 305.205C470.337 302.275 467.017 298.052 465.015 292.534C463.013 287.017 462.012 280.376 462.012 272.612V228.447C462.012 218.242 464.941 210.527 470.801 205.303C476.66 200.029 484.717 197.393 494.971 197.393C516.064 197.393 526.611 207.744 526.611 228.447V236.431C526.611 246.099 526.514 252.593 526.318 255.913H488.232V277.153C488.232 279.106 488.354 281.035 488.599 282.939C488.843 284.795 489.38 286.333 490.21 287.554C491.089 288.774 492.48 289.385 494.385 289.385C497.119 289.385 498.828 288.213 499.512 285.869C500.195 283.477 500.537 280.376 500.537 276.567V266.021H526.611V272.246C526.611 280.449 525.586 287.334 523.535 292.9C521.533 298.418 518.115 302.593 513.281 305.425C508.496 308.208 501.953 309.6 493.652 309.6ZM488.086 242.876H500.537V228.081C500.537 224.126 500.049 221.294 499.072 219.585C498.096 217.827 496.631 216.948 494.678 216.948C492.578 216.948 490.942 217.778 489.771 219.438C488.647 221.099 488.086 223.979 488.086 228.081V242.876ZM8.56934 478.428V349.521H60.1318V374.424H34.79V399.546H59.1064V423.789H34.79V453.306H61.8164V478.428H8.56934ZM69.9463 478.428V368.564H96.167V382.554C97.1436 378.354 98.9502 374.79 101.587 371.86C104.272 368.882 107.983 367.393 112.72 367.393C120.337 367.393 125.854 369.736 129.272 374.424C132.739 379.111 134.473 385.532 134.473 393.687V478.428H108.618V396.396C108.618 394.248 108.179 392.271 107.3 390.464C106.421 388.608 104.907 387.681 102.759 387.681C100.757 387.681 99.2676 388.389 98.291 389.805C97.3633 391.172 96.7773 392.905 96.5332 395.005C96.2891 397.056 96.167 399.106 96.167 401.157V478.428H69.9463ZM174.39 497.471C169.312 497.471 164.941 497.202 161.279 496.665C157.666 496.177 154.419 495.273 151.538 493.955C148.657 492.637 145.776 490.781 142.896 488.389L151.758 473.228C158.154 477.036 164.551 478.94 170.947 478.94C175.146 478.94 178.271 477.598 180.322 474.912C182.373 472.227 183.398 468.735 183.398 464.438V453.672C181.299 461.191 175.708 464.951 166.626 464.951C161.401 464.951 157.178 463.706 153.955 461.216C150.732 458.726 148.389 455.356 146.924 451.108C145.459 446.86 144.727 442.124 144.727 436.899V397.422C144.727 391.514 145.361 386.313 146.631 381.821C147.9 377.28 150.122 373.74 153.296 371.201C156.47 368.662 160.913 367.393 166.626 367.393C171.46 367.393 175.22 368.613 177.905 371.055C180.64 373.496 182.471 376.792 183.398 380.942V368.564H210.132V462.754C210.132 475.205 207.251 484.092 201.489 489.414C195.776 494.785 186.743 497.471 174.39 497.471ZM177.246 445.176C181.348 445.176 183.398 441.465 183.398 434.043V396.689C183.398 394.688 182.812 392.637 181.641 390.537C180.518 388.438 178.955 387.388 176.953 387.388C174.414 387.388 172.827 388.34 172.192 390.244C171.558 392.1 171.24 394.248 171.24 396.689V434.043C171.24 436.68 171.558 439.194 172.192 441.587C172.876 443.979 174.561 445.176 177.246 445.176ZM220.239 361.826V340H246.46V361.826H220.239ZM220.239 478.428V368.564H246.46V478.428H220.239ZM256.86 478.428V368.564H283.081V382.554C284.058 378.354 285.864 374.79 288.501 371.86C291.187 368.882 294.897 367.393 299.634 367.393C307.251 367.393 312.769 369.736 316.187 374.424C319.653 379.111 321.387 385.532 321.387 393.687V478.428H295.532V396.396C295.532 394.248 295.093 392.271 294.214 390.464C293.335 388.608 291.821 387.681 289.673 387.681C287.671 387.681 286.182 388.389 285.205 389.805C284.277 391.172 283.691 392.905 283.447 395.005C283.203 397.056 283.081 399.106 283.081 401.157V478.428H256.86ZM362.476 479.6C354.663 479.6 348.438 478.135 343.799 475.205C339.16 472.275 335.84 468.052 333.838 462.534C331.836 457.017 330.835 450.376 330.835 442.612V398.447C330.835 388.242 333.765 380.527 339.624 375.303C345.483 370.029 353.54 367.393 363.794 367.393C384.888 367.393 395.435 377.744 395.435 398.447V406.431C395.435 416.099 395.337 422.593 395.142 425.913H357.056V447.153C357.056 449.106 357.178 451.035 357.422 452.939C357.666 454.795 358.203 456.333 359.033 457.554C359.912 458.774 361.304 459.385 363.208 459.385C365.942 459.385 367.651 458.213 368.335 455.869C369.019 453.477 369.36 450.376 369.36 446.567V436.021H395.435V442.246C395.435 450.449 394.409 457.334 392.358 462.9C390.356 468.418 386.938 472.593 382.104 475.425C377.319 478.208 370.776 479.6 362.476 479.6ZM356.909 412.876H369.36V398.081C369.36 394.126 368.872 391.294 367.896 389.585C366.919 387.827 365.454 386.948 363.501 386.948C361.401 386.948 359.766 387.778 358.594 389.438C357.471 391.099 356.909 393.979 356.909 398.081V412.876ZM435.718 479.6C427.905 479.6 421.68 478.135 417.041 475.205C412.402 472.275 409.082 468.052 407.08 462.534C405.078 457.017 404.077 450.376 404.077 442.612V398.447C404.077 388.242 407.007 380.527 412.866 375.303C418.726 370.029 426.782 367.393 437.036 367.393C458.13 367.393 468.677 377.744 468.677 398.447V406.431C468.677 416.099 468.579 422.593 468.384 425.913H430.298V447.153C430.298 449.106 430.42 451.035 430.664 452.939C430.908 454.795 431.445 456.333 432.275 457.554C433.154 458.774 434.546 459.385 436.45 459.385C439.185 459.385 440.894 458.213 441.577 455.869C442.261 453.477 442.603 450.376 442.603 446.567V436.021H468.677V442.246C468.677 450.449 467.651 457.334 465.601 462.9C463.599 468.418 460.181 472.593 455.347 475.425C450.562 478.208 444.019 479.6 435.718 479.6ZM430.151 412.876H442.603V398.081C442.603 394.126 442.114 391.294 441.138 389.585C440.161 387.827 438.696 386.948 436.743 386.948C434.644 386.948 433.008 387.778 431.836 389.438C430.713 391.099 430.151 393.979 430.151 398.081V412.876ZM478.198 478.428V368.564H504.858V380.796C506.128 376.548 508.374 373.228 511.597 370.835C514.819 368.442 518.872 367.246 523.755 367.246V389.146C521.606 389.146 519.043 389.39 516.064 389.878C513.086 390.317 510.474 390.952 508.228 391.782C505.981 392.563 504.858 393.442 504.858 394.419V478.428H478.198Z" fill="white"/>
</svg>
