<svg width="372" height="414" viewBox="0 0 372 414" fill="none" xmlns="http://www.w3.org/2000/svg">
<path d="M44.8482 97.4399V16.0799H34.2882V-6.29425e-05H75.9282V16.0799H65.3682V97.4399H44.8482ZM77.355 97.4399V17.9999H95.115V21.7199C98.355 18.8399 101.715 17.5199 104.595 17.5199C113.835 17.5199 116.595 24.4799 116.595 37.1999C116.595 37.4399 116.595 38.2799 116.595 39.4799V50.5199H100.635V36.9599C100.635 33.9599 99.915 32.5199 98.115 32.5199C95.715 32.5199 95.115 33.7199 95.115 36.9599V97.4399H77.355ZM122.101 44.9999V37.9199C122.101 20.6399 123.901 17.5199 142.621 17.5199C160.501 17.5199 163.141 20.0399 163.141 37.9199V97.4399H145.501V93.8399C142.021 96.5999 138.541 97.9199 134.461 97.9199C123.661 97.9199 122.101 91.3199 122.101 77.5199V69.7199C122.101 62.2799 123.661 59.2799 130.021 55.5599L145.381 46.4399V35.9999C145.381 35.2799 145.381 34.6799 145.381 34.3199C145.381 32.1599 144.541 31.1999 142.861 31.1999C140.221 31.1999 139.861 32.9999 139.861 35.9999V44.9999H122.101ZM145.381 63.2399C139.981 65.3999 139.861 67.1999 139.861 71.5199V79.5599C139.861 82.9199 140.461 84.3599 142.621 84.3599C145.021 84.3599 145.381 82.9199 145.381 79.5599V63.2399ZM171.574 97.4399V17.9999H189.334V97.4399H171.574ZM171.574 11.8799V-6.29425e-05H189.334V11.8799H171.574ZM197.707 97.4399V17.9999H215.467V21.7199C218.587 18.8399 221.947 17.5199 225.427 17.5199C235.747 17.5199 238.747 24.4799 238.747 37.1999C238.747 37.4399 238.747 38.2799 238.747 39.4799V97.4399H220.987V36.9599C220.987 33.9599 220.267 32.5199 218.467 32.5199C216.067 32.5199 215.467 33.7199 215.467 36.9599V97.4399H197.707ZM269.6 68.2799H287.36V77.5199C287.36 95.1599 285.2 97.9199 266.96 97.9199C249.08 97.9199 246.32 95.5199 246.32 77.5199V37.9199C246.32 20.6399 248.12 17.5199 266.84 17.5199C284.72 17.5199 287.36 20.0399 287.36 37.9199V60.2399H264.08V79.5599C264.08 82.9199 264.68 84.3599 266.84 84.3599C268.64 84.3599 269.6 83.1599 269.6 81.1199C269.6 80.9999 269.6 80.5199 269.6 79.5599V68.2799ZM269.6 46.5599V35.9999C269.6 32.7599 269.12 31.1999 266.84 31.1999C265.04 31.1999 264.08 32.2799 264.08 34.1999C264.08 35.0399 264.08 35.6399 264.08 35.9999V46.5599H269.6ZM317.412 68.2799H335.172V77.5199C335.172 95.1599 333.012 97.9199 314.772 97.9199C296.892 97.9199 294.132 95.5199 294.132 77.5199V37.9199C294.132 20.6399 295.932 17.5199 314.652 17.5199C332.532 17.5199 335.172 20.0399 335.172 37.9199V60.2399H311.892V79.5599C311.892 82.9199 312.492 84.3599 314.652 84.3599C316.452 84.3599 317.412 83.1599 317.412 81.1199C317.412 80.9999 317.412 80.5199 317.412 79.5599V68.2799ZM317.412 46.5599V35.9999C317.412 32.7599 316.932 31.1999 314.652 31.1999C312.852 31.1999 311.892 32.2799 311.892 34.1999C311.892 35.0399 311.892 35.6399 311.892 35.9999V46.5599H317.412ZM2.94596e-05 207.32H20.64V226.4C20.64 229.76 21.48 231.2 23.76 231.2C25.56 231.2 26.88 230 26.88 228.2C26.88 227.96 26.88 227.36 26.88 226.4V211.88C26.88 208.4 26.4 206.96 22.8 205.04L9.00003 197.36C2.28003 193.64 2.94596e-05 188.24 2.94596e-05 179.84V168.44C2.94596e-05 150.56 3.24003 148.4 23.52 148.4C39.12 148.4 47.04 149.6 47.04 162.56C47.04 163.16 47.04 165.08 47.04 168.44V182.96H26.76V169.04C26.76 165.68 26.28 164.24 23.52 164.24C21.12 164.24 20.64 166.04 20.64 169.04V178.28C20.64 181.76 21.24 183.2 24.72 185.12L37.44 191.96C45.12 196.04 47.04 201.08 47.04 208.76V227C47.04 228.44 47.04 229.76 47.04 230.96C47.04 236 46.8 239.6 44.52 242.6C41.28 246.92 34.92 247.16 23.88 247.16C3.84003 247.16 2.94596e-05 245.24 2.94596e-05 227V207.32ZM54.3666 186.92C54.3666 169.64 56.1666 166.52 74.8866 166.52C92.7666 166.52 95.4066 169.04 95.4066 186.92V226.52C95.4066 244.16 93.2466 246.92 75.0066 246.92C57.1266 246.92 54.3666 244.52 54.3666 226.52V186.92ZM72.1266 185V228.56C72.1266 231.92 72.7266 233.36 74.8866 233.36C76.6866 233.36 77.6466 232.28 77.6466 230.36C77.6466 230.12 77.6466 229.52 77.6466 228.56V185C77.6466 181.76 77.1666 180.2 74.8866 180.2C73.0866 180.2 72.1266 181.28 72.1266 183.2C72.1266 184.04 72.1266 184.64 72.1266 185ZM104.339 165.2C104.339 164.48 104.339 164.12 104.339 163.64C104.339 152.48 107.699 148.52 120.419 148.52H129.659V161.84H125.699C123.299 161.84 122.099 163.28 122.099 165.92C122.099 166.28 122.099 166.64 122.099 167H129.659V180.68H122.099V246.44H104.339V180.68H99.6591V167H104.339V165.2ZM155.609 149V167H162.329V180.68H155.609V227.72C155.609 231.44 156.089 233.36 159.209 233.36H162.329V246.68H153.809C138.329 246.68 137.849 241.04 137.849 227.72V180.68H133.169V167H137.849V149H155.609ZM175.49 246.44L164.69 167H182.21L185.93 222.44L189.65 167H207.05L210.77 222.44L214.49 167H232.01L221.09 246.44H202.73L198.29 193.28L193.85 246.44H175.49ZM236.242 194V186.92C236.242 169.64 238.042 166.52 256.762 166.52C274.642 166.52 277.282 169.04 277.282 186.92V246.44H259.642V242.84C256.162 245.6 252.682 246.92 248.602 246.92C237.802 246.92 236.242 240.32 236.242 226.52V218.72C236.242 211.28 237.802 208.28 244.162 204.56L259.522 195.44V185C259.522 184.28 259.522 183.68 259.522 183.32C259.522 181.16 258.682 180.2 257.002 180.2C254.362 180.2 254.002 182 254.002 185V194H236.242ZM259.522 212.24C254.122 214.4 254.002 216.2 254.002 220.52V228.56C254.002 231.92 254.602 233.36 256.762 233.36C259.162 233.36 259.522 231.92 259.522 228.56V212.24ZM285.714 246.44V167H303.474V170.72C306.714 167.84 310.074 166.52 312.954 166.52C322.194 166.52 324.954 173.48 324.954 186.2C324.954 186.44 324.954 187.28 324.954 188.48V199.52H308.994V185.96C308.994 182.96 308.274 181.52 306.474 181.52C304.074 181.52 303.474 182.72 303.474 185.96V246.44H285.714ZM353.74 217.28H371.5V226.52C371.5 244.16 369.34 246.92 351.1 246.92C333.22 246.92 330.46 244.52 330.46 226.52V186.92C330.46 169.64 332.26 166.52 350.98 166.52C368.86 166.52 371.5 169.04 371.5 186.92V209.24H348.22V228.56C348.22 231.92 348.82 233.36 350.98 233.36C352.78 233.36 353.74 232.16 353.74 230.12C353.74 230 353.74 229.52 353.74 228.56V217.28ZM353.74 195.56V185C353.74 181.76 353.26 180.2 350.98 180.2C349.18 180.2 348.22 181.28 348.22 183.2C348.22 184.04 348.22 184.64 348.22 185V195.56H353.74ZM12.0286 395.44V298H44.7886V313.72H32.5486V334H44.7886V349.84H32.5486V379.6H44.7886V395.44H12.0286ZM52.9214 395.44V316H70.6814V319.72C73.8014 316.84 77.1614 315.52 80.6414 315.52C90.9614 315.52 93.9614 322.48 93.9614 335.2C93.9614 335.44 93.9614 336.28 93.9614 337.48V395.44H76.2014V334.96C76.2014 331.96 75.4814 330.52 73.6814 330.52C71.2814 330.52 70.6814 331.72 70.6814 334.96V395.44H52.9214ZM142.575 400.12C142.575 411.16 137.055 413.8 125.655 413.8H102.735V400.12H120.855C124.095 400.12 124.815 399.4 124.815 396.4V391.6C121.695 394.48 118.335 395.8 114.855 395.8C103.095 395.8 101.535 387.16 101.535 373.96V337.48C101.535 337.12 101.535 336.28 101.535 335.2C101.535 322.48 104.535 315.52 114.855 315.52C118.335 315.52 121.695 316.84 124.815 319.72V316H142.575V400.12ZM119.295 376.24C119.295 379.36 120.015 380.8 122.055 380.8C124.335 380.8 124.815 379.24 124.815 376.24V335.2C124.815 331.96 124.095 330.64 121.815 330.64C119.895 330.64 119.295 332.32 119.295 335.2V376.24ZM151.007 395.44V316H168.767V395.44H151.007ZM151.007 309.88V298H168.767V309.88H151.007ZM177.14 395.44V316H194.9V319.72C198.02 316.84 201.38 315.52 204.86 315.52C215.18 315.52 218.18 322.48 218.18 335.2C218.18 335.44 218.18 336.28 218.18 337.48V395.44H200.42V334.96C200.42 331.96 199.7 330.52 197.9 330.52C195.5 330.52 194.9 331.72 194.9 334.96V395.44H177.14ZM249.033 366.28H266.793V375.52C266.793 393.16 264.633 395.92 246.393 395.92C228.513 395.92 225.753 393.52 225.753 375.52V335.92C225.753 318.64 227.553 315.52 246.273 315.52C264.153 315.52 266.793 318.04 266.793 335.92V358.24H243.513V377.56C243.513 380.92 244.113 382.36 246.273 382.36C248.073 382.36 249.033 381.16 249.033 379.12C249.033 379 249.033 378.52 249.033 377.56V366.28ZM249.033 344.56V334C249.033 330.76 248.553 329.2 246.273 329.2C244.473 329.2 243.513 330.28 243.513 332.2C243.513 333.04 243.513 333.64 243.513 334V344.56H249.033ZM296.846 366.28H314.606V375.52C314.606 393.16 312.446 395.92 294.206 395.92C276.326 395.92 273.566 393.52 273.566 375.52V335.92C273.566 318.64 275.366 315.52 294.086 315.52C311.966 315.52 314.606 318.04 314.606 335.92V358.24H291.326V377.56C291.326 380.92 291.926 382.36 294.086 382.36C295.886 382.36 296.846 381.16 296.846 379.12C296.846 379 296.846 378.52 296.846 377.56V366.28ZM296.846 344.56V334C296.846 330.76 296.366 329.2 294.086 329.2C292.286 329.2 291.326 330.28 291.326 332.2C291.326 333.04 291.326 333.64 291.326 334V344.56H296.846ZM322.218 395.44V316H339.978V319.72C343.218 316.84 346.578 315.52 349.458 315.52C358.698 315.52 361.458 322.48 361.458 335.2C361.458 335.44 361.458 336.28 361.458 337.48V348.52H345.498V334.96C345.498 331.96 344.778 330.52 342.978 330.52C340.578 330.52 339.978 331.72 339.978 334.96V395.44H322.218Z" fill="white"/>
</svg>
