<svg width="575" height="472" viewBox="0 0 575 472" fill="none" xmlns="http://www.w3.org/2000/svg">
<path d="M31.0547 131.25C21.7285 131.25 14.209 128.345 8.49609 122.534C2.83203 116.724 0 108.594 0 98.1445V38.6719C0 26.1719 2.46582 16.6016 7.39746 9.96094C12.3779 3.32031 20.459 0 31.6406 0C37.7441 0 43.1641 1.12305 47.9004 3.36914C52.6855 5.61523 56.4453 8.98438 59.1797 13.4766C61.9141 17.9199 63.2812 23.5352 63.2812 30.3223V52.5879H37.6465V33.5449C37.6465 29.6875 37.1582 27.0996 36.1816 25.7812C35.2051 24.4141 33.6914 23.7305 31.6406 23.7305C29.248 23.7305 27.6367 24.6094 26.8066 26.3672C25.9766 28.0762 25.5615 30.3711 25.5615 33.252V97.7783C25.5615 101.343 26.0742 103.857 27.0996 105.322C28.1738 106.787 29.6875 107.52 31.6406 107.52C33.8379 107.52 35.376 106.616 36.2549 104.81C37.1826 103.003 37.6465 100.659 37.6465 97.7783V74.5605H63.5742V98.9502C63.5742 110.278 60.7178 118.506 55.0049 123.633C49.292 128.711 41.3086 131.25 31.0547 131.25ZM103.711 131.25C81.8359 131.25 70.8984 119.897 70.8984 97.1924V53.1006C70.8984 42.749 73.8037 34.4971 79.6143 28.3447C85.4248 22.1436 93.457 19.043 103.711 19.043C114.014 19.043 122.07 22.1436 127.881 28.3447C133.691 34.4971 136.597 42.749 136.597 53.1006V97.1924C136.597 119.897 125.635 131.25 103.711 131.25ZM103.711 111.035C105.908 111.035 107.471 110.254 108.398 108.691C109.375 107.08 109.863 105.054 109.863 102.612V48.9258C109.863 42.5293 107.812 39.3311 103.711 39.3311C99.6094 39.3311 97.5586 42.5293 97.5586 48.9258V102.612C97.5586 105.054 98.0225 107.08 98.9502 108.691C99.9268 110.254 101.514 111.035 103.711 111.035ZM146.338 130.078V20.2148H171.973V32.959C173.145 28.4668 175.146 25.0244 177.979 22.6318C180.811 20.2393 184.961 19.043 190.43 19.043C194.824 19.043 198.56 20.0684 201.636 22.1191C204.761 24.1211 206.958 26.7822 208.228 30.1025C210.229 26.4893 212.573 23.7549 215.259 21.8994C217.993 19.9951 221.875 19.043 226.904 19.043C233.008 19.043 237.695 20.3613 240.967 22.998C244.287 25.5859 246.582 29.1992 247.852 33.8379C249.17 38.4277 249.829 43.75 249.829 49.8047V130.078H223.682V49.3652C223.682 42.2852 221.875 38.7451 218.262 38.7451C216.357 38.7451 214.893 39.4043 213.867 40.7227C212.842 41.9922 212.134 43.5791 211.743 45.4834C211.353 47.3877 211.157 49.292 211.157 51.1963V130.078H185.01V49.3652C185.01 47.0703 184.717 44.7754 184.131 42.4805C183.594 40.1855 182.178 39.0381 179.883 39.0381C177.93 39.0381 176.416 39.7461 175.342 41.1621C174.268 42.5781 173.535 44.3359 173.145 46.4355C172.754 48.4863 172.559 50.5127 172.559 52.5146V130.078H146.338ZM260.156 148.389V20.2148H286.816V31.9336C288.428 27.8809 290.649 24.7314 293.481 22.4854C296.362 20.1904 300.464 19.043 305.786 19.043C312.964 19.043 318.018 21.6553 320.947 26.8799C323.926 32.1045 325.415 38.9404 325.415 47.3877V101.44C325.415 107.056 324.609 112.134 322.998 116.675C321.436 121.167 318.945 124.731 315.527 127.368C312.158 129.956 307.739 131.25 302.271 131.25C295.142 131.25 289.99 126.953 286.816 118.359V148.389H260.156ZM293.042 110.815C295.776 110.815 297.412 109.448 297.949 106.714C298.535 103.979 298.828 100.61 298.828 96.6064V53.6865C298.828 49.6338 298.535 46.2646 297.949 43.5791C297.412 40.8447 295.776 39.4775 293.042 39.4775C290.21 39.4775 288.452 40.8691 287.769 43.6523C287.134 46.3867 286.816 49.7314 286.816 53.6865V96.6064C286.816 100.562 287.134 103.931 287.769 106.714C288.452 109.448 290.21 110.815 293.042 110.815ZM356.616 131.25C350.757 131.25 346.265 130.029 343.14 127.588C340.063 125.146 337.964 121.753 336.841 117.407C335.718 113.013 335.156 107.886 335.156 102.026V20.2148H361.523V98.9502C361.523 103.345 361.865 106.421 362.549 108.179C363.232 109.888 364.844 110.742 367.383 110.742C370.117 110.742 371.826 109.521 372.51 107.08C373.242 104.639 373.608 101.489 373.608 97.6318V20.2148H399.756V130.078H373.535V118.359C371.875 122.559 369.873 125.757 367.529 127.954C365.234 130.151 361.597 131.25 356.616 131.25ZM432.861 131.25C425.781 131.25 420.996 129.761 418.506 126.782C416.064 123.755 414.844 119.141 414.844 112.939V44.458H407.446V24.4629H414.844V1.17188H440.332V24.4629H447.729V44.458H440.332V106.787C440.332 108.594 440.625 109.863 441.211 110.596C441.797 111.328 442.92 111.694 444.58 111.694C445.752 111.694 446.802 111.597 447.729 111.401V129.272C447.144 129.468 445.312 129.834 442.236 130.371C439.16 130.957 436.035 131.25 432.861 131.25ZM486.914 131.25C479.102 131.25 472.876 129.785 468.237 126.855C463.599 123.926 460.278 119.702 458.276 114.185C456.274 108.667 455.273 102.026 455.273 94.2627V50.0977C455.273 39.8926 458.203 32.1777 464.062 26.9531C469.922 21.6797 477.979 19.043 488.232 19.043C509.326 19.043 519.873 29.3945 519.873 50.0977V58.0811C519.873 67.749 519.775 74.2432 519.58 77.5635H481.494V98.8037C481.494 100.757 481.616 102.686 481.86 104.59C482.104 106.445 482.642 107.983 483.472 109.204C484.351 110.425 485.742 111.035 487.646 111.035C490.381 111.035 492.09 109.863 492.773 107.52C493.457 105.127 493.799 102.026 493.799 98.2178V87.6709H519.873V93.8965C519.873 102.1 518.848 108.984 516.797 114.551C514.795 120.068 511.377 124.243 506.543 127.075C501.758 129.858 495.215 131.25 486.914 131.25ZM481.348 64.5264H493.799V49.7314C493.799 45.7764 493.311 42.9443 492.334 41.2354C491.357 39.4775 489.893 38.5986 487.939 38.5986C485.84 38.5986 484.204 39.4287 483.032 41.0889C481.909 42.749 481.348 45.6299 481.348 49.7314V64.5264ZM529.395 130.078V20.2148H556.055V32.4463C557.324 28.1982 559.57 24.8779 562.793 22.4854C566.016 20.0928 570.068 18.8965 574.951 18.8965V40.7959C572.803 40.7959 570.239 41.04 567.261 41.5283C564.282 41.9678 561.67 42.6025 559.424 43.4326C557.178 44.2139 556.055 45.0928 556.055 46.0693V130.078H529.395ZM84.8145 301.25C73.0469 301.25 64.5508 298.32 59.3262 292.461C54.1504 286.602 51.5625 277.275 51.5625 264.482V251.885H77.0508V267.998C77.0508 270.977 77.4902 273.32 78.3691 275.029C79.2969 276.689 80.8838 277.52 83.1299 277.52C85.4736 277.52 87.085 276.836 87.9639 275.469C88.8916 274.102 89.3555 271.855 89.3555 268.73C89.3555 264.775 88.9648 261.479 88.1836 258.843C87.4023 256.157 86.0352 253.618 84.082 251.226C82.1777 248.784 79.5166 245.952 76.0986 242.729L64.5264 231.743C55.8838 223.589 51.5625 214.263 51.5625 203.765C51.5625 192.778 54.1016 184.404 59.1797 178.643C64.3066 172.881 71.7041 170 81.3721 170C93.1885 170 101.562 173.149 106.494 179.448C111.475 185.747 113.965 195.317 113.965 208.159H87.7441V199.297C87.7441 197.539 87.2314 196.172 86.2061 195.195C85.2295 194.219 83.8867 193.73 82.1777 193.73C80.127 193.73 78.6133 194.316 77.6367 195.488C76.709 196.611 76.2451 198.076 76.2451 199.883C76.2451 201.689 76.7334 203.643 77.71 205.742C78.6865 207.842 80.6152 210.259 83.4961 212.993L98.3643 227.275C101.343 230.107 104.077 233.11 106.567 236.284C109.058 239.409 111.06 243.071 112.573 247.271C114.087 251.421 114.844 256.499 114.844 262.505C114.844 274.614 112.598 284.111 108.105 290.996C103.662 297.832 95.8984 301.25 84.8145 301.25ZM156.079 301.25C143.774 301.25 135.034 298.101 129.858 291.802C124.731 285.503 122.168 276.25 122.168 264.043V230.205C122.168 221.025 123.145 213.384 125.098 207.28C127.051 201.177 130.469 196.611 135.352 193.584C140.234 190.557 147.021 189.043 155.713 189.043C161.768 189.043 167.188 190.117 171.973 192.266C176.807 194.414 180.615 197.563 183.398 201.714C186.182 205.864 187.573 210.942 187.573 216.948V233.721H160.84V218.34C160.84 215.801 160.474 213.677 159.741 211.968C159.009 210.21 157.422 209.331 154.98 209.331C150.684 209.331 148.535 212.383 148.535 218.486V271.733C148.535 273.979 149.023 276.055 150 277.959C150.977 279.814 152.588 280.742 154.834 280.742C157.129 280.742 158.716 279.839 159.595 278.032C160.522 276.177 160.986 274.028 160.986 271.587V253.13H187.573V272.319C187.573 278.374 186.206 283.574 183.472 287.92C180.786 292.217 177.075 295.513 172.339 297.808C167.603 300.103 162.183 301.25 156.079 301.25ZM196.582 183.477V161.65H222.803V183.477H196.582ZM196.582 300.078V190.215H222.803V300.078H196.582ZM263.965 301.25C256.152 301.25 249.927 299.785 245.288 296.855C240.649 293.926 237.329 289.702 235.327 284.185C233.325 278.667 232.324 272.026 232.324 264.263V220.098C232.324 209.893 235.254 202.178 241.113 196.953C246.973 191.68 255.029 189.043 265.283 189.043C286.377 189.043 296.924 199.395 296.924 220.098V228.081C296.924 237.749 296.826 244.243 296.631 247.563H258.545V268.804C258.545 270.757 258.667 272.686 258.911 274.59C259.155 276.445 259.692 277.983 260.522 279.204C261.401 280.425 262.793 281.035 264.697 281.035C267.432 281.035 269.141 279.863 269.824 277.52C270.508 275.127 270.85 272.026 270.85 268.218V257.671H296.924V263.896C296.924 272.1 295.898 278.984 293.848 284.551C291.846 290.068 288.428 294.243 283.594 297.075C278.809 299.858 272.266 301.25 263.965 301.25ZM258.398 234.526H270.85V219.731C270.85 215.776 270.361 212.944 269.385 211.235C268.408 209.478 266.943 208.599 264.99 208.599C262.891 208.599 261.255 209.429 260.083 211.089C258.96 212.749 258.398 215.63 258.398 219.731V234.526ZM306.445 300.078V190.215H332.666V204.204C333.643 200.005 335.449 196.44 338.086 193.511C340.771 190.532 344.482 189.043 349.219 189.043C356.836 189.043 362.354 191.387 365.771 196.074C369.238 200.762 370.972 207.183 370.972 215.337V300.078H345.117V218.047C345.117 215.898 344.678 213.921 343.799 212.114C342.92 210.259 341.406 209.331 339.258 209.331C337.256 209.331 335.767 210.039 334.79 211.455C333.862 212.822 333.276 214.556 333.032 216.655C332.788 218.706 332.666 220.757 332.666 222.808V300.078H306.445ZM414.331 301.25C402.026 301.25 393.286 298.101 388.11 291.802C382.983 285.503 380.42 276.25 380.42 264.043V230.205C380.42 221.025 381.396 213.384 383.35 207.28C385.303 201.177 388.721 196.611 393.604 193.584C398.486 190.557 405.273 189.043 413.965 189.043C420.02 189.043 425.439 190.117 430.225 192.266C435.059 194.414 438.867 197.563 441.65 201.714C444.434 205.864 445.825 210.942 445.825 216.948V233.721H419.092V218.34C419.092 215.801 418.726 213.677 417.993 211.968C417.261 210.21 415.674 209.331 413.232 209.331C408.936 209.331 406.787 212.383 406.787 218.486V271.733C406.787 273.979 407.275 276.055 408.252 277.959C409.229 279.814 410.84 280.742 413.086 280.742C415.381 280.742 416.968 279.839 417.847 278.032C418.774 276.177 419.238 274.028 419.238 271.587V253.13H445.825V272.319C445.825 278.374 444.458 283.574 441.724 287.92C439.038 292.217 435.327 295.513 430.591 297.808C425.854 300.103 420.435 301.25 414.331 301.25ZM485.742 301.25C477.93 301.25 471.704 299.785 467.065 296.855C462.427 293.926 459.106 289.702 457.104 284.185C455.103 278.667 454.102 272.026 454.102 264.263V220.098C454.102 209.893 457.031 202.178 462.891 196.953C468.75 191.68 476.807 189.043 487.061 189.043C508.154 189.043 518.701 199.395 518.701 220.098V228.081C518.701 237.749 518.604 244.243 518.408 247.563H480.322V268.804C480.322 270.757 480.444 272.686 480.688 274.59C480.933 276.445 481.47 277.983 482.3 279.204C483.179 280.425 484.57 281.035 486.475 281.035C489.209 281.035 490.918 279.863 491.602 277.52C492.285 275.127 492.627 272.026 492.627 268.218V257.671H518.701V263.896C518.701 272.1 517.676 278.984 515.625 284.551C513.623 290.068 510.205 294.243 505.371 297.075C500.586 299.858 494.043 301.25 485.742 301.25ZM480.176 234.526H492.627V219.731C492.627 215.776 492.139 212.944 491.162 211.235C490.186 209.478 488.721 208.599 486.768 208.599C484.668 208.599 483.032 209.429 481.86 211.089C480.737 212.749 480.176 215.63 480.176 219.731V234.526ZM92.7246 471.25C80.957 471.25 72.4609 468.32 67.2363 462.461C62.0605 456.602 59.4727 447.275 59.4727 434.482V421.885H84.9609V437.998C84.9609 440.977 85.4004 443.32 86.2793 445.029C87.207 446.689 88.7939 447.52 91.04 447.52C93.3838 447.52 94.9951 446.836 95.874 445.469C96.8018 444.102 97.2656 441.855 97.2656 438.73C97.2656 434.775 96.875 431.479 96.0938 428.843C95.3125 426.157 93.9453 423.618 91.9922 421.226C90.0879 418.784 87.4268 415.952 84.0088 412.729L72.4365 401.743C63.7939 393.589 59.4727 384.263 59.4727 373.765C59.4727 362.778 62.0117 354.404 67.0898 348.643C72.2168 342.881 79.6143 340 89.2822 340C101.099 340 109.473 343.149 114.404 349.448C119.385 355.747 121.875 365.317 121.875 378.159H95.6543V369.297C95.6543 367.539 95.1416 366.172 94.1162 365.195C93.1396 364.219 91.7969 363.73 90.0879 363.73C88.0371 363.73 86.5234 364.316 85.5469 365.488C84.6191 366.611 84.1553 368.076 84.1553 369.883C84.1553 371.689 84.6436 373.643 85.6201 375.742C86.5967 377.842 88.5254 380.259 91.4062 382.993L106.274 397.275C109.253 400.107 111.987 403.11 114.478 406.284C116.968 409.409 118.97 413.071 120.483 417.271C121.997 421.421 122.754 426.499 122.754 432.505C122.754 444.614 120.508 454.111 116.016 460.996C111.572 467.832 103.809 471.25 92.7246 471.25ZM153.516 471.25C146.436 471.25 141.65 469.761 139.16 466.782C136.719 463.755 135.498 459.141 135.498 452.939V384.458H128.101V364.463H135.498V341.172H160.986V364.463H168.384V384.458H160.986V446.787C160.986 448.594 161.279 449.863 161.865 450.596C162.451 451.328 163.574 451.694 165.234 451.694C166.406 451.694 167.456 451.597 168.384 451.401V469.272C167.798 469.468 165.967 469.834 162.891 470.371C159.814 470.957 156.689 471.25 153.516 471.25ZM197.974 471.25C192.114 471.25 187.622 470.029 184.497 467.588C181.421 465.146 179.321 461.753 178.198 457.407C177.075 453.013 176.514 447.886 176.514 442.026V360.215H202.881V438.95C202.881 443.345 203.223 446.421 203.906 448.179C204.59 449.888 206.201 450.742 208.74 450.742C211.475 450.742 213.184 449.521 213.867 447.08C214.6 444.639 214.966 441.489 214.966 437.632V360.215H241.113V470.078H214.893V458.359C213.232 462.559 211.23 465.757 208.887 467.954C206.592 470.151 202.954 471.25 197.974 471.25ZM273.267 471.25C268.188 471.25 264.16 470.322 261.182 468.467C258.203 466.611 255.981 464.048 254.517 460.776C253.052 457.505 252.075 453.672 251.587 449.277C251.147 444.883 250.928 440.171 250.928 435.142V387.388C250.928 378.94 252.417 372.104 255.396 366.88C258.423 361.655 263.525 359.043 270.703 359.043C276.025 359.043 280.103 360.19 282.935 362.485C285.815 364.731 288.037 367.881 289.6 371.934V341.172H316.26V470.078H289.6V458.433C288.135 462.388 286.182 465.513 283.74 467.808C281.348 470.103 277.856 471.25 273.267 471.25ZM283.301 450.742C285.791 450.742 287.451 449.741 288.281 447.739C289.16 445.737 289.6 442.148 289.6 436.973V390.757C289.6 388.169 289.209 385.63 288.428 383.14C287.695 380.601 286.035 379.331 283.447 379.331C280.615 379.331 278.833 380.527 278.101 382.92C277.368 385.312 277.002 387.925 277.002 390.757V436.973C277.002 446.152 279.102 450.742 283.301 450.742ZM357.129 471.25C349.316 471.25 343.091 469.785 338.452 466.855C333.813 463.926 330.493 459.702 328.491 454.185C326.489 448.667 325.488 442.026 325.488 434.263V390.098C325.488 379.893 328.418 372.178 334.277 366.953C340.137 361.68 348.193 359.043 358.447 359.043C379.541 359.043 390.088 369.395 390.088 390.098V398.081C390.088 407.749 389.99 414.243 389.795 417.563H351.709V438.804C351.709 440.757 351.831 442.686 352.075 444.59C352.319 446.445 352.856 447.983 353.687 449.204C354.565 450.425 355.957 451.035 357.861 451.035C360.596 451.035 362.305 449.863 362.988 447.52C363.672 445.127 364.014 442.026 364.014 438.218V427.671H390.088V433.896C390.088 442.1 389.062 448.984 387.012 454.551C385.01 460.068 381.592 464.243 376.758 467.075C371.973 469.858 365.43 471.25 357.129 471.25ZM351.562 404.526H364.014V389.731C364.014 385.776 363.525 382.944 362.549 381.235C361.572 379.478 360.107 378.599 358.154 378.599C356.055 378.599 354.419 379.429 353.247 381.089C352.124 382.749 351.562 385.63 351.562 389.731V404.526ZM399.609 470.078V360.215H425.83V374.204C426.807 370.005 428.613 366.44 431.25 363.511C433.936 360.532 437.646 359.043 442.383 359.043C450 359.043 455.518 361.387 458.936 366.074C462.402 370.762 464.136 377.183 464.136 385.337V470.078H438.281V388.047C438.281 385.898 437.842 383.921 436.963 382.114C436.084 380.259 434.57 379.331 432.422 379.331C430.42 379.331 428.931 380.039 427.954 381.455C427.026 382.822 426.44 384.556 426.196 386.655C425.952 388.706 425.83 390.757 425.83 392.808V470.078H399.609ZM497.021 471.25C489.941 471.25 485.156 469.761 482.666 466.782C480.225 463.755 479.004 459.141 479.004 452.939V384.458H471.606V364.463H479.004V341.172H504.492V364.463H511.89V384.458H504.492V446.787C504.492 448.594 504.785 449.863 505.371 450.596C505.957 451.328 507.08 451.694 508.74 451.694C509.912 451.694 510.962 451.597 511.89 451.401V469.272C511.304 469.468 509.473 469.834 506.396 470.371C503.32 470.957 500.195 471.25 497.021 471.25Z" fill="white"/>
</svg>
